<svg width="81" height="96" viewBox="0 0 81 96" fill="none" xmlns="http://www.w3.org/2000/svg">
<g filter="url(#filter0_d_37_430)">
<rect x="4.5" y="15.6484" width="71" height="71" rx="4.5" fill="#0A0E68" stroke="white"/>
<path d="M30.1051 32.5672C27.9904 41.2024 33.2773 49.8964 41.9124 52.0111C50.5476 54.1258 59.2416 48.839 61.3563 40.2038C63.4711 31.5686 58.1842 22.8747 49.549 20.7599C40.9138 18.7039 32.1611 23.932 30.1051 32.5672Z" fill="#7CC9EB"/>
<path d="M46.7877 4.89937C45.9653 8.3652 48.0213 11.831 51.4871 12.6534C54.9529 13.4758 58.4188 11.4198 59.2412 7.95399C60.0636 4.48816 57.9488 1.02235 54.5417 0.199946C51.1347 -0.681197 47.6101 1.43355 46.7877 4.89937Z" fill="white"/>
<path d="M27.9313 18.7627C25.1116 30.2763 32.1608 41.9073 43.6744 44.727C55.1879 47.5467 66.819 40.4975 69.6387 28.9839C72.4583 17.4703 65.4092 5.83925 53.8956 3.01959C42.3233 0.199936 30.7509 7.24909 27.9313 18.7627Z" fill="#7CC9EB"/>
<path d="M65.6441 11.1849C73.4569 13.1234 78.2151 20.9362 76.2766 28.749L73.1045 41.6724C71.166 49.4852 63.3532 54.2433 55.5404 52.3048L29.5761 45.9606C21.7633 44.0221 17.0051 36.2093 18.9436 28.3965L22.1157 15.4731C24.0542 7.66029 31.867 2.90212 39.6798 4.84063L65.6441 11.1849Z" fill="white"/>
<path d="M58.478 42.436C49.1379 43.0235 40.3265 40.9087 32.9249 36.8555C32.22 36.503 31.985 35.6806 32.3962 35.0344C32.7486 34.447 33.571 34.212 34.2172 34.5645C41.2076 38.324 49.5491 40.3213 58.478 39.7339C59.3004 39.6751 60.0053 40.2038 60.0053 40.9087C60.0641 41.6724 59.3591 42.3773 58.478 42.436Z" fill="#141893"/>
<path d="M69.1102 31.9211C68.1703 35.7394 64.352 38.0303 60.5337 37.0904L32.1022 30.1001C28.2839 29.1602 25.9929 25.3419 26.9328 21.5236L27.9314 17.4703C28.8713 13.6521 32.6896 11.3611 36.5079 12.301L64.9394 19.2914C68.7577 20.2313 71.0487 24.0495 70.1088 27.8678L69.1102 31.9211Z" fill="#141893"/>
<path d="M63.3536 33.3896C63.471 33.1547 63.5298 32.9197 63.5885 32.6847C64.2347 29.9825 62.5899 27.2804 59.8877 26.6342C57.1856 25.988 54.4834 27.6328 53.8372 30.335C53.7785 30.57 53.7197 30.805 53.7197 31.0987L63.3536 33.3896Z" fill="#7CC9EB"/>
<path d="M42.3821 28.2203C42.4996 27.9853 42.5583 27.7503 42.6171 27.5153C43.2633 24.8132 41.6185 22.111 38.9163 21.4648C36.2141 20.8187 33.512 22.4635 32.8658 25.1656C32.807 25.4006 32.7483 25.6356 32.7483 25.9293L42.3821 28.2203Z" fill="#7CC9EB"/>
<path d="M29.5176 39.9688C29.4001 40.4388 28.9301 40.7325 28.4014 40.615L27.8728 40.4975C27.4028 40.38 27.1091 39.9101 27.2266 39.3814C27.3441 38.9115 27.814 38.6178 28.3427 38.7352L28.8714 38.8527C29.3413 38.9702 29.635 39.4401 29.5176 39.9688Z" fill="#BB20A2"/>
<path d="M32.8071 40.7325C32.6896 41.2024 32.2197 41.4962 31.691 41.3787L31.1623 41.2612C30.6924 41.1437 30.3987 40.6738 30.5161 40.1451C30.6336 39.6751 31.1036 39.3814 31.6323 39.4989L32.1609 39.6164C32.6309 39.7926 32.9246 40.2626 32.8071 40.7325Z" fill="#BB20A2"/>
<path d="M41.7361 17.764C41.5598 18.3515 40.9724 18.7039 40.385 18.5864L34.217 17.0591C33.6295 16.8829 33.2771 16.2955 33.3946 15.708C33.5708 15.1206 34.1582 14.7682 34.7457 14.8856L40.9137 16.413C41.5011 16.5304 41.8535 17.1179 41.7361 17.764Z" fill="#7CC9EB"/>
<path d="M66.0554 23.6971C65.8792 24.2845 65.2917 24.6369 64.7043 24.5195L58.5363 22.9921C57.9489 22.8159 57.5964 22.2285 57.7139 21.6411C57.8901 21.0536 58.4776 20.7012 59.065 20.8187L65.233 22.346C65.8204 22.5222 66.2316 23.1096 66.0554 23.6971Z" fill="#7CC9EB"/>
<path d="M46.0831 62.0561C45.2607 65.4632 47.3167 68.929 50.7825 69.7514C54.1896 70.5738 57.6554 68.5178 58.4778 65.052C59.3002 61.6449 57.2442 58.1791 53.7784 57.3567C50.4301 56.5343 46.9642 58.649 46.0831 62.0561Z" fill="#7CC9EB"/>
<path d="M21.3521 56.0056C20.5297 59.4127 22.5857 62.8785 26.0516 63.7009C29.4587 64.5233 32.9245 62.4673 33.7469 59.0015C34.5693 55.5944 32.5133 52.1286 29.0475 51.3062C25.6404 50.4838 22.2333 52.5985 21.3521 56.0056Z" fill="#7CC9EB"/>
<path d="M49.725 78.9153C48.4326 84.2609 43.0283 87.4918 37.7415 86.1994L29.8112 84.2609C24.4656 82.9686 21.2347 77.5642 22.5271 72.2774L25.6404 59.5302C26.9328 54.1846 32.3371 50.9538 37.624 52.2461L45.5542 54.1846C50.8998 55.477 54.1307 60.8813 52.8384 66.1681L49.725 78.9153Z" fill="white"/>
<path d="M42.6758 77.3293L40.4436 86.4344C44.7906 86.3169 48.6676 83.321 49.725 78.9153L51.9572 69.8102C47.669 69.9277 43.7919 72.9236 42.6758 77.3293Z" fill="#E4F4FF"/>
<path d="M24.818 63.1135L22.5858 72.2774C21.4697 76.7418 23.6432 81.265 27.4615 83.321L29.6937 74.1572C30.8098 69.6927 28.6951 65.1695 24.818 63.1135Z" fill="#E4F4FF"/>
<path d="M33.3358 61.8799C32.5721 65.1108 34.5106 68.3416 37.7415 69.164C40.9723 69.9277 44.2032 67.9892 45.0256 64.7583C45.7892 61.5275 43.8507 58.2966 40.6199 57.4742C37.389 56.7106 34.0994 58.6491 33.3358 61.8799Z" fill="#C7DFE6"/>
<path d="M34.1583 62.1149C33.4534 64.8758 35.1569 67.6955 37.9766 68.4004C40.7375 69.1053 43.5572 67.4018 44.2621 64.5821C44.967 61.8212 43.2635 59.0015 40.4438 58.2966C37.6241 57.5917 34.8045 59.2952 34.1583 62.1149Z" fill="#DBF1FF"/>
<path d="M35.744 62.4674C35.2741 64.3471 36.4489 66.2856 38.3287 66.7556C40.2085 67.2255 42.147 66.0507 42.6169 64.1709C43.0869 62.2911 41.912 60.3526 40.0322 59.8827C38.0937 59.4127 36.2139 60.5876 35.744 62.4674Z" fill="#7CC9EB"/>
<path d="M37.7413 62.996C37.5651 63.7597 38.0351 64.5821 38.7987 64.7583C39.5624 64.9346 40.3848 64.4646 40.561 63.701C40.7372 62.9373 40.2673 62.1149 39.5036 61.9387C38.74 61.7037 37.9176 62.1736 37.7413 62.996Z" fill="#BB20A2"/>
<path d="M10.2499 73.0998C9.42749 72.9236 8.89881 72.1012 9.0163 71.22C11.131 57.8854 20.9411 56.4756 21.411 56.4168C22.2922 56.2993 23.1146 56.9455 23.2321 57.8267C23.3495 58.7078 22.7034 59.5302 21.8222 59.6477C21.4698 59.7064 14.0094 60.94 12.2472 71.69C12.1297 72.5711 11.2485 73.2173 10.3674 73.0411C10.3674 73.1585 10.3086 73.1585 10.2499 73.0998Z" fill="white"/>
<path d="M69.8151 75.7432C70.5788 75.3908 70.99 74.5096 70.6962 73.6872C66.173 60.9988 56.3042 61.3512 55.893 61.3512C55.0119 61.41 54.307 62.1736 54.3657 63.0548C54.4245 63.9359 55.1881 64.6408 56.0693 64.5821C56.4217 64.5821 63.9996 64.4059 67.6416 74.7446C67.9353 75.6257 68.8752 76.0369 69.7563 75.7432C69.6976 75.7432 69.7564 75.7432 69.8151 75.7432Z" fill="white"/>
<path d="M11.5138 78.1528C12.9596 78.1626 14.1262 76.9909 14.136 75.545L14.1528 73.4469C14.1626 72.001 12.9909 70.8344 11.545 70.8247L9.44693 70.8078C8.00104 70.7981 6.83445 71.9698 6.82473 73.4157L6.80784 75.5138C6.79812 76.9596 7.96981 78.1262 9.4157 78.136L11.5138 78.1528Z" fill="#7CC9EB"/>
<path d="M70.5138 81.1528C71.9596 81.1626 73.1262 79.9909 73.136 78.545L73.1528 76.4469C73.1626 75.001 71.9909 73.8344 70.545 73.8247L68.4469 73.8078C67.001 73.7981 65.8344 74.9698 65.8247 76.4157L65.8078 78.5138C65.7981 79.9596 66.9698 81.1262 68.4157 81.136L70.5138 81.1528Z" fill="#7CC9EB"/>
</g>
<defs>
<filter id="filter0_d_37_430" x="0" y="0" width="80.7092" height="95.1484" filterUnits="userSpaceOnUse" color-interpolation-filters="sRGB">
<feFlood flood-opacity="0" result="BackgroundImageFix"/>
<feColorMatrix in="SourceAlpha" type="matrix" values="0 0 0 0 0 0 0 0 0 0 0 0 0 0 0 0 0 0 127 0" result="hardAlpha"/>
<feOffset dy="4"/>
<feGaussianBlur stdDeviation="2"/>
<feColorMatrix type="matrix" values="0 0 0 0 0 0 0 0 0 0 0 0 0 0 0 0 0 0 0.25 0"/>
<feBlend mode="normal" in2="BackgroundImageFix" result="effect1_dropShadow_37_430"/>
<feBlend mode="normal" in="SourceGraphic" in2="effect1_dropShadow_37_430" result="shape"/>
</filter>
</defs>
</svg>
