<svg width="360" height="170" viewBox="0 0 360 170" fill="none" xmlns="http://www.w3.org/2000/svg">
<path fill-rule="evenodd" clip-rule="evenodd" d="M299.904 1H293.597L298.521 3H305.249L299.904 1ZM307.921 4H300.982L305.906 6H313.266L307.921 4ZM315.938 7H308.367L315.753 10H323.955L315.938 7ZM326.628 11H318.214L325.599 14H334.645L326.628 11ZM337.317 15H328.061L335.446 18H345.335L337.317 15ZM348 18.9974V19H337.908L347.754 23H358.697L348 18.9974ZM364.174 24H394V23H361.502L301 0.360428V0H263.69H95.3097H59V0.061076L58.9632 2.58088e-05L32.2394 10H32V10.0896L-2.50171 23H-32V24H-5.1741L-15.8637 28H-43.5V29H-18.5361L-31.898 34H-56.5V35H-34.5704L-50.6048 41H-72V42H-53.2772L-69.3115 48H-87.5V49H-71.9839L-93.363 57H-105V58H-96.0354L-102 60.2319L-101.484 61.0886L-93.2302 58H-74.913L-97.0681 67H-126V68H-99.5298L-102 69.0035L-101.453 69.8405L-96.9221 68H-76.0842L-98.5621 78H-150V79H-100.81L-102 79.5294L-101.418 80.3426L-98.4001 79H-75.7124L-102 91.8097L-101.383 92.5967L-73.4804 79H-51.149L-77.1038 93.0001L-197 93.0001V94.0001L-78.9577 94.0001L-102 106.429L-101.344 107.184L-76.9021 94.0001L-49.9634 94L-74.5657 109L-197 109V110L-76.2059 110L-102 125.727L-101.3 126.441L-74.3347 110L-43.7251 110L-70.8152 129L-197 129V130L-72.241 130L-102 150.872L-101.252 151.535L-70.547 130H-35.0699L-81.9723 169L-81.1713 169.599L-33.5489 130H1.92703L-35.241 167.246L-34.3912 167.773L3.30283 130H39.0802L10.0065 167.246L10.9062 167.682L40.3206 130H76.2336L55.2543 167.246L56.1982 167.576L77.3636 130L113.552 130L100.502 167.246L101.479 167.458L114.604 130H150.54L145.75 167.246L146.747 167.325L151.547 130H179.129V167.246H180.129V130H207.453L212.254 167.325L213.25 167.246L208.46 130H244.396L257.521 167.458L258.498 167.246L245.448 130L281.637 130L302.802 167.576L303.746 167.246L282.766 130H318.679L348.094 167.682L348.993 167.246L319.92 130H355.697L393.391 167.773L394.241 167.246L357.073 130H392.549L440.171 169.599L440.972 169L394.07 130H429.547L460.252 151.535L461 150.872L431.241 130L557 130V129L429.815 129L402.725 110L433.335 110L460.3 126.441L461 125.727L435.206 110L557 110V109L433.566 109L408.963 94L435.902 94L460.345 107.184L461 106.429L437.958 94L557 94V93L436.104 93L410.149 79H432.481L460.383 92.5967L461 91.8097L434.713 79H457.4L460.418 80.3426L461 79.5294L459.81 79H518.5V78H457.562L435.084 68H455.922L460.453 69.8405L461 69.0035L458.53 68H491V67H456.068L433.913 58H452.23L460.484 61.0886L461 60.2319L455.036 58H471V57H452.363L430.984 49H450V48H428.312L412.277 42H433.5V41H409.605L393.57 35H417.5V34H390.898L377.536 29H405V28H374.864L364.174 24ZM361.369 24H350.216L360.063 28H372.059L361.369 24ZM374.731 29H362.524L374.833 34H388.093L374.731 29ZM390.765 35H377.294L392.065 41H406.8L390.765 35ZM409.472 42H394.526L409.296 48H425.506L409.472 42ZM428.179 49H411.758L431.451 57H449.558L428.179 49ZM428.844 57L409.15 49H392.376L410.359 57H428.844ZM407.949 57L389.966 49H373.148L389.565 57H407.949ZM391.617 58H410.197L430.427 67H410.087L391.617 58ZM387.333 57L370.916 49H354.532L369.363 57H387.333ZM371.217 58H389.385L407.855 67H387.902L371.217 58ZM367.308 57L352.476 49H335.157L348.278 57H367.308ZM349.918 58H369.161L385.847 67H364.679L349.918 58ZM346.407 57L333.286 49H315.752L327.158 57H346.407ZM328.584 58H348.047L362.808 67H341.416L328.584 58ZM325.464 57L314.058 49H296.657L306.278 57H325.464ZM307.481 58H326.89L339.722 67H318.304L307.481 58ZM304.757 57L295.136 49H276.242L284.225 57H304.757ZM285.223 58H305.96L316.783 67H294.204L285.223 58ZM282.849 57L274.866 49H256.692L262.936 57H282.849ZM263.717 58H283.847L292.828 67H270.742L263.717 58ZM261.696 57L255.451 49H237.142L241.648 57H261.696ZM242.211 58H262.477L269.502 67H247.281L242.211 58ZM240.518 57L236.012 49H217.067L219.87 57H240.518ZM220.221 58H241.081L246.151 67H223.374L220.221 58ZM218.819 57L216.016 49H198.042L199.071 57H218.819ZM199.199 58H219.169L222.322 67H200.357L199.199 58ZM198.063 57L197.035 49H180.129V57H198.063ZM180.129 58H198.192L199.35 67H180.129V58ZM179.129 57V49H161.966L160.937 57H179.129ZM160.808 58H179.129V67H159.65L160.808 58ZM159.93 57L160.959 49H142.985L140.182 57H159.93ZM139.831 58H159.801L158.643 67H136.678L139.831 58ZM139.13 57L141.933 49H122.988L118.482 57H139.13ZM117.919 58H138.78L135.626 67H112.85L117.919 58ZM117.352 57L121.858 49H103.549L97.3039 57H117.352ZM96.5233 58H116.789L111.72 67H89.498L96.5233 58ZM96.0635 57L102.308 49H84.1341L76.1508 57H96.0635ZM75.1529 58H95.2829L88.2576 67H66.1716L75.1529 58ZM74.775 57L82.7583 49H63.8638L54.2428 57H74.775ZM53.0402 58H73.7771L64.7958 67H42.2166L53.0402 58ZM52.7218 57L62.3428 49H44.9422L33.5359 57H52.7218ZM32.1101 58H51.5192L40.6956 67H19.278L32.1101 58ZM31.8419 57L43.2482 49H25.7146L12.5934 57H31.8419ZM10.9532 58H30.4161L17.584 67H-3.80812L10.9532 58ZM10.7223 57L23.8435 49H6.52382L-8.30743 57H10.7223ZM-10.1613 58H9.08211L-5.67926 67H-26.8465L-10.1613 58ZM-10.363 57L4.46823 49H-11.9155L-28.3328 57H-10.363ZM-30.385 58H-12.2169L-28.9021 67H-48.8545L-30.385 58ZM-30.5648 57L-14.1475 49H-30.9664L-48.9487 57H-30.5648ZM-51.1965 58H-32.617L-51.0864 67H-71.4266L-51.1965 58ZM-51.3585 57L-33.3762 49H-50.1502L-69.8436 57H-51.3585ZM-72.3053 58H-53.6063L-73.8364 67H-94.4604L-72.3053 58ZM-72.4513 57L-52.7579 49H-69.1786L-90.5578 57H-72.4513ZM-66.5063 48H-50.2962L-35.5261 42H-50.4719L-66.5063 48ZM-47.7995 41H-33.0644L-18.2944 35H-31.7652L-47.7995 41ZM-29.0928 34H-15.8327L-3.52431 29H-15.7308L-29.0928 34ZM-13.0584 28H-1.06262L8.78409 24H-2.36884L-13.0584 28ZM0.303558 23H11.2458L21.0925 19H11V18.9974L0.303558 23ZM13.6655 18H23.5542L30.9392 15H21.6827L13.6655 18ZM24.3551 14H33.4009L40.7859 11H32.3723L24.3551 14ZM35.0447 10H43.2476L50.6326 7H43.0618L35.0447 10ZM45.7342 6H53.0943L58.0177 4H51.079L45.7342 6ZM53.7514 3H60.4793L65.4027 1H59.0962L53.7514 3ZM68.0104 1L63.087 3H70.0222L74.5178 1H68.0104ZM76.9276 1L72.432 3H80.252L84.3563 1H76.9276ZM86.5883 1L82.4839 3H89.748L93.4558 1H86.5883ZM95.5114 1L91.8036 3H99.2905L102.571 1H95.5114ZM104.442 1L101.162 3H108.835L111.686 1H104.442ZM113.38 1L110.529 3H117.664L120.069 1H113.38ZM121.59 1L119.185 3H128.662L130.658 1H121.59ZM132.034 1L130.038 3H138.215L139.777 1H132.034ZM141.017 1L139.456 3H147.769L148.895 1H141.017ZM150.025 1L148.899 3H158.05L158.751 1H150.025ZM159.803 1L159.102 3H166.875L167.132 1H159.803ZM168.139 1L167.882 3H179.129V1H168.139ZM180.129 1V3H191.118L190.861 1H180.129ZM191.868 1L192.125 3H199.898L199.197 1H191.868ZM200.249 1L200.95 3H210.101L208.975 1H200.249ZM210.105 1L211.231 3H219.544L217.983 1H210.105ZM219.223 1L220.785 3H228.962L226.966 1H219.223ZM228.342 1L230.338 3H239.815L237.41 1H228.342ZM238.931 1L241.336 3H248.471L245.62 1H238.931ZM247.314 1L250.165 3H257.839L254.558 1H247.314ZM256.429 1L259.71 3H267.197L263.489 1H256.429ZM265.544 1L269.252 3H276.516L272.412 1H265.544ZM274.644 1L278.748 3H286.568L282.073 1H274.644ZM284.482 1L288.978 3H295.913L290.99 1H284.482ZM298.375 4H291.226L295.721 6H303.298L298.375 4ZM305.76 7H297.969L304.712 10H313.145L305.76 7ZM315.607 11H306.96L313.704 14H322.992L315.607 11ZM325.453 15H315.951L322.695 18H332.838L325.453 15ZM335.3 19H324.943L333.934 23H345.147L335.3 19ZM347.608 24H336.182L345.173 28H357.455L347.608 24ZM359.917 29H347.421L358.659 34H372.225L359.917 29ZM374.687 35H360.907L374.394 41H389.457L374.687 35ZM391.919 42H376.642L390.129 48H406.689L391.919 42ZM387.719 48L374.232 42H358.782L371.095 48H387.719ZM368.864 48L356.551 42H341.555L352.678 48H368.864ZM350.622 48L339.499 42H323.676L333.516 48H350.622ZM331.645 48L321.804 42H305.771L314.326 48H331.645ZM312.632 48L304.077 42H288.239L295.455 48H312.632ZM293.934 48L286.718 42H269.256L275.244 48H293.934ZM273.868 48L267.881 42H251.228L255.911 48H273.868ZM254.671 48L249.987 42H233.199L236.578 48H254.671ZM235.448 48L232.069 42H214.615L216.717 48H235.448ZM215.665 48L213.563 42H197.141L197.913 48H215.665ZM196.906 48L196.134 42H180.129V48H196.906ZM179.129 48V42H162.866L162.094 48H179.129ZM161.087 48L161.859 42H145.437L143.335 48H161.087ZM142.283 48L144.386 42H126.931L123.552 48H142.283ZM122.422 48L125.801 42H109.013L104.329 48H122.422ZM103.089 48L107.772 42H91.1195L85.132 48H103.089ZM83.7562 48L89.7437 42H72.2822L65.0664 48H83.7562ZM63.5454 48L70.7612 42H54.9228L46.368 48H63.5454ZM44.674 48L53.2287 42H37.1957L27.3548 48H44.674ZM25.4836 48L35.3245 42H19.5012L8.37773 48H25.4836ZM6.32214 48L17.4456 42H2.4496L-9.86337 48H6.32214ZM-12.0953 48L0.217636 42H-15.2318L-28.7186 48H-12.0953ZM-31.1284 48L-17.6417 42H-32.9184L-47.6885 48H-31.1284ZM-30.4568 41H-15.3939L-1.90714 35H-15.6867L-30.4568 41ZM-13.225 34H0.340652L11.5796 29H-0.916611L-13.225 34ZM1.54506 28H13.8274L22.8186 24H11.3918L1.54506 28ZM13.8535 23H25.0664L34.0575 19H23.7002L13.8535 23ZM26.1618 18H36.3053L43.0487 15H33.5469L26.1618 18ZM36.0086 14H45.2965L52.0398 11H43.3936L36.0086 14ZM45.8553 10H54.2876L61.031 7H53.2403L45.8553 10ZM55.702 6H63.2788L67.7744 4H60.6253L55.702 6ZM70.1842 4L65.6887 6H74.0955L78.1998 4H70.1842ZM80.4318 4L76.3275 6H84.1862L87.8941 4H80.4318ZM89.9496 4L86.2418 6H94.37L97.6503 4H89.9496ZM99.5215 4L96.2411 6H104.557L107.409 4H99.5215ZM109.103 4L106.251 6H114.056L116.461 4H109.103ZM117.982 4L115.577 6H125.669L127.665 4H117.982ZM129.04 4L127.045 6H135.874L137.435 4H129.04ZM138.675 4L137.114 6H146.079L147.205 4H138.675ZM148.335 4L147.209 6H156.999L157.7 4H148.335ZM158.752 4L158.051 6H166.489L166.746 4H158.752ZM167.754 4L167.496 6H179.129V4H167.754ZM180.129 4V6H191.504L191.247 4H180.129ZM192.254 4L192.511 6H200.949L200.248 4H192.254ZM201.3 4L202.001 6H211.791L210.665 4H201.3ZM211.795 4L212.921 6H221.886L220.325 4H211.795ZM221.565 4L223.126 6H231.956L229.96 4H221.565ZM231.336 4L233.331 6H243.423L241.018 4H231.336ZM242.539 4L244.944 6H252.749L249.897 4H242.539ZM251.591 4L254.443 6H262.759L259.479 4H251.591ZM261.35 4L264.63 6H272.758L269.05 4H261.35ZM271.106 4L274.814 6H282.673L278.568 4H271.106ZM280.8 4L284.905 6H293.311L288.816 4H280.8ZM295.559 7H286.957L293.113 10H302.303L295.559 7ZM304.55 11H295.165L301.322 14H311.294L304.55 11ZM313.542 15H303.374L309.531 18H320.285L313.542 15ZM322.533 19H311.583L319.791 23H331.524L322.533 19ZM333.772 24H321.844L330.052 28H342.763L333.772 24ZM345.011 29H332.104L342.365 34H356.25L345.011 29ZM358.497 35H344.417L356.73 41H371.984L358.497 35ZM354.498 41L342.185 35H328.577L339.701 41H354.498ZM337.645 41L326.522 35H312.194L322.035 41H337.645ZM320.164 41L310.323 35H295.791L304.345 41H320.164ZM302.651 41L294.097 35H279.82L287.036 41H302.651ZM285.515 41L278.299 35H262.271L268.258 41H285.515ZM266.883 41L260.895 35H245.763L250.447 41H266.883ZM249.207 41L244.523 35H229.256L232.636 41H249.207ZM231.506 41L228.126 35H212.162L214.264 41H231.506ZM213.212 41L211.11 35H196.241L197.013 41H213.212ZM196.006 41L195.234 35H180.129V41H196.006ZM179.129 41V35H163.766L162.995 41H179.129ZM161.987 41L162.759 35H147.89L145.788 41H161.987ZM144.736 41L146.838 35H130.874L127.495 41H144.736ZM126.365 41L129.744 35H114.477L109.793 41H126.365ZM108.553 41L113.237 35H98.1049L92.1175 41H108.553ZM90.7416 41L96.7292 35H80.7006L73.4848 41H90.7416ZM71.9638 41L79.1796 35H64.9033L56.3486 41H71.9638ZM54.6545 41L63.2093 35H48.6767L38.8358 41H54.6545ZM36.9647 41L46.8056 35H32.4785L21.3551 41H36.9647ZM19.2995 41L30.4229 35H16.8147L4.50175 41H19.2995ZM2.26979 41L14.5828 35H0.502716L-12.984 41H2.26979ZM2.7505 34H16.6349L26.8958 29H13.9895L2.7505 34ZM16.2372 28H28.9479L37.1566 24H25.2284L16.2372 28ZM27.4762 23H39.2087L47.4174 19H36.4674L27.4762 23ZM38.7151 18H49.4695L55.626 15H45.4585L38.7151 18ZM47.7063 14H57.6782L63.8347 11H54.4497L47.7063 14ZM56.6975 10H65.8868L72.0433 7H63.4409L56.6975 10ZM74.2753 7L68.1188 10H76.7706L82.3323 7H74.2753ZM84.3879 7L78.8262 10H87.8094L92.7299 7H84.3879ZM94.601 7L89.6805 10H98.8541L103.131 7H94.601ZM104.825 7L100.548 10H109.245L112.853 7H104.825ZM114.374 7L110.766 10H121.677L124.671 7H114.374ZM126.047 7L123.053 10H132.751L135.093 7H126.047ZM136.334 7L133.992 10H143.826L145.516 7H136.334ZM146.646 7L144.956 10H155.598L156.649 7H146.646ZM157.701 7L156.649 10H165.975L166.361 7H157.701ZM167.368 7L166.982 10H179.129V7H167.368ZM180.129 7V10H192.018L191.632 7H180.129ZM192.64 7L193.025 10H202.351L201.3 7H192.64ZM202.351 7L203.402 10H214.044L212.354 7H202.351ZM213.484 7L215.174 10H225.008L222.666 7H213.484ZM223.907 7L226.249 10H235.947L232.954 7H223.907ZM234.329 7L237.323 10H248.234L244.626 7H234.329ZM246.147 7L249.755 10H258.452L254.175 7H246.147ZM255.869 7L260.146 10H269.32L264.399 7H255.869ZM266.27 7L271.191 10H280.174L274.612 7H266.27ZM276.668 7L282.229 10H290.881L284.725 7H276.668ZM292.933 11H284.083L289.645 14H299.09L292.933 11ZM301.142 15H291.499L297.061 18H307.299L301.142 15ZM309.351 19H298.915L306.33 23H317.559L309.351 19ZM319.612 24H308.184L315.6 28H327.82L319.612 24ZM329.872 29H317.454L326.723 34H340.133L329.872 29ZM324.668 34L315.398 29H302.354L310.554 34H324.668ZM308.683 34L300.482 29H287.236L294.365 34H308.683ZM292.671 34L285.542 29H272.605L278.618 34H292.671ZM277.097 34L271.084 29H256.283L261.273 34H277.097ZM259.897 34L254.908 29H241.08L244.983 34H259.897ZM243.742 34L239.839 29H225.876L228.693 34H243.742ZM227.563 34L224.746 29H210.06L211.811 34H227.563ZM210.76 34L209.008 29H195.469L196.112 34H210.76ZM195.105 34L194.462 29H180.129V34H195.105ZM179.129 34V29H164.538L163.895 34H179.129ZM162.888 34L163.531 29H149.992L148.24 34H162.888ZM147.189 34L148.941 29H134.254L131.437 34H147.189ZM130.307 34L133.124 29H119.161L115.258 34H130.307ZM114.017 34L117.92 29H104.092L99.1029 34H114.017ZM97.7271 34L102.717 29H87.9163L81.9032 34H97.7271ZM80.3822 34L86.3953 29H73.4581L66.3291 34H80.3822ZM64.6351 34L71.764 29H58.5177L50.3169 34H64.6351ZM48.4458 34L56.6465 29H43.602L34.3324 34H48.4458ZM32.2768 34L41.5464 29H29.1277L18.8669 34H32.2768ZM31.1799 28H43.4003L50.8159 24H39.3885L31.1799 28ZM41.4407 23H52.6698L60.0854 19H49.6493L41.4407 23ZM51.7015 18H61.9394L67.5011 15H57.858L51.7015 18ZM59.9102 14H69.355L74.9167 11H66.0667L59.9102 14ZM76.9723 11L71.4106 14H81.2488L86.1693 11H76.9723ZM88.0404 11L83.1199 14H93.1509L97.4283 11H88.0404ZM99.1223 11L94.8449 14H104.435L108.043 11H99.1223ZM109.564 11L105.956 14H117.685L120.679 11H109.564ZM122.055 11L119.061 14H129.629L131.971 11H122.055ZM133.211 11L130.869 14H141.573L143.263 11H133.211ZM144.393 11L142.703 14H154.196L155.247 11H144.393ZM156.299 11L155.248 14H165.46L165.846 11H156.299ZM166.853 11L166.467 14H179.129V11H166.853ZM180.129 11V14H192.533L192.147 11H180.129ZM193.154 11L193.54 14H203.752L202.701 11H193.154ZM203.753 11L204.804 14H216.297L214.608 11H203.753ZM215.738 11L217.427 14H228.131L225.789 11H215.738ZM227.029 11L229.371 14H239.939L236.945 11H227.029ZM238.321 11L241.315 14H253.044L249.436 11H238.321ZM250.957 11L254.565 14H264.155L259.878 11H250.957ZM261.572 11L265.849 14H275.88L270.96 11H261.572ZM272.831 11L277.751 14H287.59L282.028 11H272.831ZM289.443 15H279.391L284.312 18H295.005L289.443 15ZM296.859 19H285.952L292.513 23H304.275L296.859 19ZM306.129 24H294.153L300.713 28H313.544L306.129 24ZM298.842 28L292.282 24H280.107L285.81 28H298.842ZM284.116 28L278.413 24H266.592L271.402 28H284.116ZM269.881 28L265.071 24H251.294L255.286 28H269.881ZM253.91 28L249.918 24H237.177L240.299 28H253.91ZM239.059 28L235.937 24H223.06L225.313 28H239.059ZM224.183 28L221.93 24H208.308L209.709 28H224.183ZM208.658 28L207.256 24H194.826L195.341 28H208.658ZM194.333 28L193.819 24H180.129V28H194.333ZM179.129 28V24H165.181L164.667 28H179.129ZM163.66 28L164.174 24H151.744L150.343 28H163.66ZM149.291 28L150.692 24H137.07L134.817 28H149.291ZM133.687 28L135.94 24H123.063L119.941 28H133.687ZM118.701 28L121.823 24H109.082L105.09 28H118.701ZM103.715 28L107.706 24H93.9294L89.119 28H103.715ZM87.598 28L92.4084 24H80.587L74.8839 28H87.598ZM73.1898 28L78.893 24H66.7184L60.1578 28H73.1898ZM58.2867 28L64.8473 24H52.8715L45.4559 28H58.2867ZM54.7254 23H66.4874L73.048 19H62.141L54.7254 23ZM63.9949 18H74.6882L79.6086 15H69.5567L63.9949 18ZM81.4798 15L76.5593 18H87.4477L91.7251 15H81.4798ZM93.4192 15L89.1418 18H99.6242L103.232 15H93.4192ZM104.753 15L101.145 18H113.694L116.687 15H104.753ZM118.063 15L115.07 18H126.507L128.848 15H118.063ZM130.089 15L127.747 18H139.32L141.01 15H130.089ZM142.139 15L140.45 18H152.795L153.846 15H142.139ZM154.898 15L153.846 18H164.946L165.332 15H154.898ZM166.339 15L165.953 18H179.129V15H166.339ZM180.129 15V18H193.047L192.661 15H180.129ZM193.668 15L194.054 18H205.154L204.103 15H193.668ZM205.154 15L206.205 18H218.55L216.861 15H205.154ZM217.991 15L219.68 18H231.253L228.911 15H217.991ZM230.152 15L232.493 18H243.931L240.937 15H230.152ZM242.313 15L245.306 18H257.855L254.247 15H242.313ZM255.768 15L259.376 18H269.858L265.581 15H255.768ZM267.275 15L271.552 18H282.441L277.52 15H267.275ZM284.081 19H272.978L278.681 23H290.642L284.081 19ZM276.987 23L271.284 19H260.578L265.389 23H276.987ZM263.868 23L259.057 19H246.304L250.296 23H263.868ZM248.92 23L244.928 19H233.274L236.396 23H248.92ZM235.156 23L232.034 19H220.244L222.497 23H235.156ZM221.367 23L219.114 19H206.556L207.957 23H221.367ZM206.906 23L205.504 19H194.183L194.697 23H206.906ZM193.69 23L193.176 19H180.129V23H193.69ZM179.129 23V19H165.824L165.31 23H179.129ZM164.303 23L164.817 19H153.496L152.095 23H164.303ZM151.043 23L152.444 19H139.886L137.633 23H151.043ZM136.503 23L138.756 19H126.966L123.844 23H136.503ZM122.604 23L125.726 19H114.072L110.08 23H122.604ZM108.704 23L112.696 19H99.9426L95.1321 23H108.704ZM93.6111 23L98.4216 19H87.716L82.0128 23H93.6111ZM80.3188 23L86.0219 19H74.9192L68.3586 23H80.3188ZM-73.6744 68L-96.1523 78H-73.6602L-53.1386 68H-73.6744ZM-50.9066 68L-71.4283 78H-49.2951L-30.756 68H-50.9066ZM-28.7004 68L-47.2395 78H-23.7209L-7.31941 68H-28.7004ZM-5.44827 68L-21.8498 78H1.90024L16.1582 68H-5.44827ZM17.8522 68L3.59428 78H27.4667L39.4929 68H17.8522ZM41.0139 68L28.9877 78H53.8187L63.7979 68H41.0139ZM65.1737 68L55.1945 78H79.6711L87.477 68H65.1737ZM88.7174 68L80.9115 78H105.524L111.156 68H88.7174ZM112.286 68L106.654 78H131.772L135.276 68H112.286ZM136.327 68L132.824 78H157.229L158.515 68H136.327ZM159.522 68L158.236 78H179.129V68H159.522ZM180.129 68V78H200.764L199.478 68H180.129ZM200.485 68L201.772 78H226.176L222.673 68H200.485ZM223.724 68L227.228 78H252.347L246.714 68H223.724ZM247.844 68L253.476 78H278.089L270.283 68H247.844ZM271.523 68L279.329 78H303.806L293.826 68H271.523ZM295.202 68L305.181 78H330.012L317.986 68H295.202ZM319.507 68L331.533 78H355.406L341.148 68H319.507ZM342.842 68L357.1 78H380.85L364.448 68H342.842ZM366.32 68L382.721 78H406.24L387.701 68H366.32ZM389.756 68L408.295 78H430.428L409.907 68H389.756ZM412.139 68L432.66 78H455.152L432.674 68H412.139ZM408.094 79H384.361L407.323 93L434.048 93L408.094 79ZM405.452 93L382.49 79H358.526L378.487 93H405.452ZM376.793 93L356.832 79H332.736L349.573 93H376.793ZM350.775 94H378.218L399.605 109H368.815L350.775 94ZM348.052 93L331.215 79H306.179L320.15 93L348.052 93ZM321.148 94L349.254 94L367.294 109L336.117 109L321.148 94ZM318.774 93L304.803 79H280.11L291.038 93H318.774ZM291.818 94H319.772L334.741 109H303.527L291.818 94ZM289.797 93L278.869 79H254.04L261.926 93L289.797 93ZM262.489 94L290.578 94L302.287 109H270.938L262.489 94ZM260.796 93L252.91 79H227.579L232.484 93H260.796ZM232.834 94H261.359L269.808 109L238.09 109L232.834 94ZM231.432 93L226.527 79H201.9L203.701 93H231.432ZM203.829 94H231.783L237.038 109H205.759L203.829 94ZM202.694 93L200.893 79H180.129V93H202.694ZM180.129 94H202.822L204.752 109H180.129V94ZM179.129 93V79H158.107L156.306 93H179.129ZM156.178 94H179.129V109H154.248L156.178 94ZM155.299 93L157.1 79H132.473L127.568 93H155.299ZM127.218 94H155.171L153.241 109H121.962L127.218 94ZM126.516 93L131.422 79H106.09L98.2045 93H126.516ZM97.6413 94H126.166L120.91 109L89.1922 109L97.6413 94ZM97.0746 93L104.96 79H80.1309L69.2026 93L97.0746 93ZM68.422 94L96.5113 94L88.0623 109H56.7131L68.422 94ZM67.9621 93L78.8904 79H54.1966L40.2258 93H67.9621ZM39.2278 94H67.1815L55.4726 109H24.2591L39.2278 94ZM38.85 93L52.8208 79H27.785L10.9482 93L38.85 93ZM9.74561 94L37.852 94L22.8833 109L-8.29378 109L9.74561 94ZM9.42725 93L26.2641 79H2.16849L-17.7927 93H9.42725ZM-19.2184 94H8.22462L-9.81477 109H-40.6053L-19.2184 94ZM-19.4867 93L0.474457 79H-23.4899L-46.4521 93H-19.4867ZM-48.0923 94H-20.9125L-42.2994 109L-72.6946 109L-48.0923 94ZM-48.3233 93L-25.3611 79H-49.0934L-75.0482 93.0001L-48.3233 93ZM-42.0311 110L-69.1212 129H-33.8673L-11.0174 110H-42.0311ZM-9.49641 110L-32.3463 129H2.92496L21.8854 110L-9.49641 110ZM23.2612 110L4.30075 129H39.8608L54.692 110H23.2612ZM55.9325 110L41.1012 129H76.7969L87.499 110H55.9325ZM88.629 110L77.9269 129L113.903 129L120.56 110L88.629 110ZM121.611 110L114.954 129H150.669L153.113 110H121.611ZM154.12 110L151.676 129H179.129V110H154.12ZM180.129 110V129H207.324L204.88 110H180.129ZM205.887 110L208.331 129H244.046L237.389 110H205.887ZM238.44 110L245.098 129L281.073 129L270.371 110L238.44 110ZM271.501 110L282.203 129H317.899L303.067 110H271.501ZM304.308 110L319.139 129H354.699L335.739 110H304.308ZM337.115 110L356.075 129H391.346L368.496 110L337.115 110ZM370.017 110L392.867 129H428.121L401.031 110H370.017ZM401.299 109L379.912 94H407.092L431.695 109L401.299 109ZM432.837 67L412.606 58H431.305L453.46 67H432.837Z" fill="url(#paint0_radial_11_7625)" fill-opacity="0.6"/>
<defs>
<radialGradient id="paint0_radial_11_7625" cx="0" cy="0" r="1" gradientUnits="userSpaceOnUse" gradientTransform="translate(180.13 17.5) rotate(90) scale(74.5 12459.8)">
<stop stop-color="#B213A3"/>
<stop offset="1" stop-color="white" stop-opacity="0"/>
</radialGradient>
</defs>
</svg>
